<svg width="2302" height="826" viewBox="0 0 2302 826" fill="none" xmlns="http://www.w3.org/2000/svg">
<rect width="2302" height="826" fill="#500F49"/>
<path d="M329.25 231.968L371.174 140.726V670.881L333.999 685.967C333.999 685.967 329.25 360.39 329.25 231.968Z" fill="url(#paint0_linear_44_415)"/>
<path d="M215.979 272.964L252.343 188.406L253.604 628.453L216.292 589.393C216.292 589.393 215.979 380.929 215.979 272.964Z" fill="url(#paint1_linear_44_415)"/>
<path d="M334.05 671.981L333.668 625.793C333.636 504.615 333.668 383.437 333.381 262.259L333.604 262.705V222.768L308.779 211.821L308.874 212.012C290.892 204.184 272.305 196.706 252.381 188.4V232.983C252.349 359.189 252.274 501.2 252.624 627.406C254.27 629.341 258.047 632.557 258.907 633.288C262.312 636.312 265.812 639.062 269.249 641.99C279.911 650.996 291.369 659.206 302.954 666.97C309.002 671.012 315.144 674.894 321.382 678.617C322.464 679.254 334.018 685.141 334.05 686C333.922 679.604 334.368 679.237 334.05 671.981Z" fill="url(#paint2_linear_44_415)"/>
<path d="M540 210.167V355.562C537.486 509.007 474.916 602.729 370.428 671.241L370.998 140C387.261 146.619 402.156 152.57 416.956 158.743C451.871 173.349 486.721 188.083 521.636 202.562C527.747 205.108 533.889 207.653 540 210.167Z" fill="url(#paint3_linear_44_415)"/>
<path d="M216.322 496.44C216.322 493.957 216.322 491.475 216.322 488.993C216.322 451.921 216.322 415.198 216.29 378.635C216.29 377.33 216.29 376.057 216.29 374.752C216.29 365.683 216.258 356.614 216.258 347.577C216.258 340.162 216.226 332.748 216.226 325.397C216.226 322.437 216.226 319.478 216.226 316.518C216.226 313.082 216.226 309.677 216.194 306.272L216.258 306.526L216.481 272.731L211.293 270.377C211.293 270.377 211.293 270.377 211.261 270.345C211.134 270.281 211.007 270.217 210.847 270.154L207.601 268.658V268.722C185.64 258.857 163.266 249.724 140 240.05V355.532C141.369 438.555 160.115 504.077 193.629 557.569C200.185 567.975 203.177 572.144 210.593 581.881C210.784 582.136 216.035 589.073 216.29 589.296C216.29 563.329 216.29 537.076 216.29 510.759C216.322 505.986 216.322 501.213 216.322 496.44Z" fill="url(#paint4_linear_44_415)"/>
<path d="M703.233 516.713C690.668 516.713 679.15 513.858 668.679 508.146C658.398 502.244 650.117 493.582 643.834 482.159C637.742 470.736 634.696 456.458 634.696 439.323C634.696 422.189 637.647 407.91 643.548 396.487C649.641 385.064 657.827 376.497 668.108 370.786C678.579 365.074 690.287 362.218 703.233 362.218C718.083 362.218 731.219 365.455 742.642 371.928C754.065 378.401 763.108 387.444 769.772 399.057C776.435 410.48 779.767 423.902 779.767 439.323C779.767 454.744 776.435 468.261 769.772 479.875C763.108 491.488 754.065 500.531 742.642 507.004C731.219 513.477 718.083 516.713 703.233 516.713ZM622.987 570.401V363.646H649.26V404.483L647.546 439.609L650.402 474.734V570.401H622.987ZM700.949 492.725C710.658 492.725 719.32 490.536 726.936 486.157C734.741 481.778 740.834 475.591 745.212 467.595C749.782 459.408 752.066 449.985 752.066 439.323C752.066 428.471 749.782 419.143 745.212 411.337C740.834 403.341 734.741 397.154 726.936 392.775C719.32 388.396 710.658 386.207 700.949 386.207C691.429 386.207 682.767 388.396 674.961 392.775C667.346 397.154 661.254 403.341 656.685 411.337C652.306 419.143 650.117 428.471 650.117 439.323C650.117 449.985 652.306 459.408 656.685 467.595C661.254 475.591 667.346 481.778 674.961 486.157C682.767 490.536 691.429 492.725 700.949 492.725ZM873.618 516.713C857.435 516.713 843.156 513.382 830.782 506.718C818.597 500.055 809.078 490.917 802.224 479.303C795.561 467.69 792.229 454.363 792.229 439.323C792.229 424.283 795.466 410.956 801.939 399.343C808.602 387.73 817.645 378.686 829.068 372.214C840.682 365.55 853.723 362.218 868.192 362.218C882.851 362.218 895.797 365.455 907.03 371.928C918.262 378.401 927.02 387.539 933.302 399.343C939.775 410.956 943.012 424.569 943.012 440.18C943.012 441.322 942.917 442.655 942.726 444.178C942.726 445.701 942.631 447.129 942.441 448.461H813.647V428.757H928.162L917.025 435.611C917.215 425.901 915.216 417.239 911.028 409.624C906.839 402.008 901.033 396.106 893.608 391.918C886.373 387.539 877.901 385.35 868.192 385.35C858.673 385.35 850.201 387.539 842.776 391.918C835.351 396.106 829.544 402.103 825.356 409.909C821.167 417.524 819.073 426.282 819.073 436.182V440.751C819.073 450.841 821.358 459.884 825.927 467.88C830.686 475.686 837.255 481.778 845.631 486.157C854.008 490.536 863.623 492.725 874.474 492.725C883.422 492.725 891.513 491.202 898.748 488.156C906.173 485.11 912.646 480.541 918.167 474.449L933.302 492.154C926.449 500.15 917.881 506.242 907.601 510.431C897.511 514.619 886.183 516.713 873.618 516.713ZM969.657 515V363.646H995.93V404.769L993.36 394.488C997.548 384.017 1004.59 376.021 1014.49 370.5C1024.39 364.979 1036.58 362.218 1051.05 362.218V388.777C1049.9 388.586 1048.76 388.491 1047.62 388.491C1046.67 388.491 1045.71 388.491 1044.76 388.491C1030.1 388.491 1018.49 392.87 1009.92 401.628C1001.36 410.385 997.072 423.046 997.072 439.609V515H969.657ZM1262.75 362.218C1274.93 362.218 1285.69 364.598 1295.02 369.358C1304.34 374.117 1311.58 381.352 1316.72 391.061C1322.05 400.771 1324.72 413.05 1324.72 427.9V515H1297.3V431.042C1297.3 416.382 1293.87 405.34 1287.02 397.915C1280.17 390.49 1270.55 386.778 1258.18 386.778C1249.04 386.778 1241.04 388.682 1234.19 392.489C1227.34 396.297 1222 401.913 1218.2 409.338C1214.58 416.763 1212.77 425.996 1212.77 437.039V515H1185.36V431.042C1185.36 416.382 1181.93 405.34 1175.08 397.915C1168.41 390.49 1158.8 386.778 1146.23 386.778C1137.28 386.778 1129.38 388.682 1122.53 392.489C1115.68 396.297 1110.35 401.913 1106.54 409.338C1102.73 416.763 1100.83 425.996 1100.83 437.039V515H1073.41V363.646H1099.68V403.912L1095.4 393.631C1100.16 383.732 1107.49 376.021 1117.39 370.5C1127.29 364.979 1138.81 362.218 1151.94 362.218C1166.41 362.218 1178.88 365.836 1189.35 373.07C1199.83 380.114 1206.68 390.871 1209.92 405.34L1198.78 400.771C1203.35 389.158 1211.34 379.829 1222.77 372.785C1234.19 365.741 1247.52 362.218 1262.75 362.218ZM1429.99 572.115C1416.09 572.115 1402.57 570.116 1389.44 566.118C1376.49 562.31 1365.93 556.789 1357.74 549.554L1370.88 528.422C1377.92 534.514 1386.58 539.274 1396.86 542.701C1407.14 546.318 1417.9 548.126 1429.13 548.126C1447.03 548.126 1460.17 543.938 1468.54 535.561C1476.92 527.184 1481.11 514.429 1481.11 497.294V465.31L1483.96 435.325L1482.54 405.054V363.646H1508.52V494.439C1508.52 521.092 1501.86 540.702 1488.53 553.267C1475.21 565.832 1455.69 572.115 1429.99 572.115ZM1426.56 508.717C1411.9 508.717 1398.77 505.671 1387.15 499.579C1375.73 493.296 1366.59 484.634 1359.74 473.592C1353.08 462.55 1349.74 449.794 1349.74 435.325C1349.74 420.666 1353.08 407.91 1359.74 397.058C1366.59 386.016 1375.73 377.449 1387.15 371.357C1398.77 365.265 1411.9 362.218 1426.56 362.218C1439.51 362.218 1451.31 364.884 1461.97 370.214C1472.64 375.355 1481.11 383.351 1487.39 394.203C1493.86 405.054 1497.1 418.762 1497.1 435.325C1497.1 451.698 1493.86 465.31 1487.39 476.162C1481.11 487.014 1472.64 495.2 1461.97 500.721C1451.31 506.052 1439.51 508.717 1426.56 508.717ZM1429.7 484.729C1439.79 484.729 1448.74 482.635 1456.55 478.447C1464.35 474.258 1470.45 468.452 1474.82 461.027C1479.39 453.602 1481.68 445.035 1481.68 435.325C1481.68 425.616 1479.39 417.048 1474.82 409.624C1470.45 402.199 1464.35 396.487 1456.55 392.489C1448.74 388.301 1439.79 386.207 1429.7 386.207C1419.61 386.207 1410.57 388.301 1402.57 392.489C1394.77 396.487 1388.58 402.199 1384.01 409.624C1379.63 417.048 1377.44 425.616 1377.44 435.325C1377.44 445.035 1379.63 453.602 1384.01 461.027C1388.58 468.452 1394.77 474.258 1402.57 478.447C1410.57 482.635 1419.61 484.729 1429.7 484.729ZM1613.16 516.713C1600.22 516.713 1588.8 514.334 1578.9 509.574C1569.19 504.815 1561.57 497.58 1556.05 487.871C1550.72 477.971 1548.05 465.596 1548.05 450.746V363.646H1575.47V447.605C1575.47 462.455 1578.99 473.592 1586.04 481.017C1593.27 488.442 1603.36 492.154 1616.31 492.154C1625.82 492.154 1634.11 490.25 1641.15 486.443C1648.19 482.445 1653.62 476.733 1657.43 469.308C1661.24 461.693 1663.14 452.555 1663.14 441.893V363.646H1690.55V515H1664.57V474.163L1668.85 485.015C1663.9 495.105 1656.48 502.911 1646.58 508.432C1636.68 513.953 1625.54 516.713 1613.16 516.713ZM1825.28 515V483.016L1823.85 477.019V422.474C1823.85 410.861 1820.42 401.913 1813.57 395.63C1806.9 389.158 1796.81 385.921 1783.3 385.921C1774.35 385.921 1765.59 387.444 1757.02 390.49C1748.46 393.346 1741.22 397.249 1735.32 402.199L1723.9 381.637C1731.7 375.355 1741.03 370.595 1751.88 367.359C1762.93 363.932 1774.44 362.218 1786.44 362.218C1807.19 362.218 1823.18 367.264 1834.41 377.354C1845.65 387.444 1851.26 402.865 1851.26 423.617V515H1825.28ZM1775.59 516.713C1764.35 516.713 1754.45 514.81 1745.89 511.002C1737.51 507.194 1731.04 501.959 1726.47 495.295C1721.9 488.442 1719.61 480.731 1719.61 472.164C1719.61 463.978 1721.52 456.553 1725.33 449.889C1729.32 443.226 1735.7 437.895 1744.46 433.897C1753.41 429.899 1765.4 427.9 1780.44 427.9H1828.42V447.605H1781.58C1767.88 447.605 1758.64 449.889 1753.88 454.459C1749.12 459.028 1746.74 464.549 1746.74 471.022C1746.74 478.447 1749.69 484.444 1755.6 489.013C1761.5 493.392 1769.68 495.581 1780.16 495.581C1790.44 495.581 1799.38 493.296 1807 488.727C1814.81 484.158 1820.42 477.495 1823.85 468.737L1829.27 487.585C1825.66 496.533 1819.28 503.672 1810.14 509.003C1801 514.143 1789.48 516.713 1775.59 516.713ZM1890.57 515V363.646H1916.85V404.769L1914.28 394.488C1918.47 384.017 1925.51 376.021 1935.41 370.5C1945.31 364.979 1957.49 362.218 1971.96 362.218V388.777C1970.82 388.586 1969.68 388.491 1968.54 388.491C1967.58 388.491 1966.63 388.491 1965.68 388.491C1951.02 388.491 1939.41 392.87 1930.84 401.628C1922.27 410.385 1917.99 423.046 1917.99 439.609V515H1890.57ZM2055.47 516.713C2040.82 516.713 2027.68 513.477 2016.07 507.004C2004.64 500.531 1995.6 491.488 1988.94 479.875C1982.27 468.261 1978.94 454.744 1978.94 439.323C1978.94 423.902 1982.27 410.48 1988.94 399.057C1995.6 387.444 2004.64 378.401 2016.07 371.928C2027.68 365.455 2040.82 362.218 2055.47 362.218C2068.23 362.218 2079.75 365.074 2090.03 370.786C2100.31 376.497 2108.5 385.064 2114.59 396.487C2120.87 407.91 2124.01 422.189 2124.01 439.323C2124.01 456.458 2120.97 470.736 2114.87 482.159C2108.97 493.582 2100.88 502.244 2090.6 508.146C2080.32 513.858 2068.61 516.713 2055.47 516.713ZM2057.76 492.725C2067.28 492.725 2075.85 490.536 2083.46 486.157C2091.27 481.778 2097.36 475.591 2101.74 467.595C2106.31 459.408 2108.59 449.985 2108.59 439.323C2108.59 428.471 2106.31 419.143 2101.74 411.337C2097.36 403.341 2091.27 397.154 2083.46 392.775C2075.85 388.396 2067.28 386.207 2057.76 386.207C2048.05 386.207 2039.39 388.396 2031.77 392.775C2024.16 397.154 2018.06 403.341 2013.5 411.337C2008.93 419.143 2006.64 428.471 2006.64 439.323C2006.64 449.985 2008.93 459.408 2013.5 467.595C2018.06 475.591 2024.16 481.778 2031.77 486.157C2039.39 490.536 2048.05 492.725 2057.76 492.725ZM2109.45 515V474.163L2111.16 439.038L2108.31 403.912V303.105H2135.72V515H2109.45Z" fill="white"/>
<defs>
<linearGradient id="paint0_linear_44_415" x1="350.363" y1="140.726" x2="350.363" y2="670.169" gradientUnits="userSpaceOnUse">
<stop stop-color="#B94848"/>
<stop offset="1" stop-color="#851287"/>
</linearGradient>
<linearGradient id="paint1_linear_44_415" x1="231.231" y1="188.402" x2="231.231" y2="633.508" gradientUnits="userSpaceOnUse">
<stop stop-color="#B94848"/>
<stop offset="1" stop-color="#851287"/>
</linearGradient>
<linearGradient id="paint2_linear_44_415" x1="293.2" y1="188.4" x2="424.405" y2="686.045" gradientUnits="userSpaceOnUse">
<stop stop-color="#F25E79"/>
<stop offset="1" stop-color="#C52CF1"/>
</linearGradient>
<linearGradient id="paint3_linear_44_415" x1="370.999" y1="-6.7427" x2="455.385" y2="671.218" gradientUnits="userSpaceOnUse">
<stop stop-color="#F05C80"/>
<stop offset="1" stop-color="#CC34DF"/>
</linearGradient>
<linearGradient id="paint4_linear_44_415" x1="-31.7638" y1="102.738" x2="280.126" y2="724.212" gradientUnits="userSpaceOnUse">
<stop stop-color="#FFD83E"/>
<stop offset="1" stop-color="#D038D7"/>
</linearGradient>
</defs>
</svg>
