<svg width="2022" height="546" viewBox="0 0 2022 546" fill="none" xmlns="http://www.w3.org/2000/svg">
<path d="M189.25 91.9676L231.174 0.725586V530.88L193.999 545.967C193.999 545.967 189.25 220.39 189.25 91.9676Z" fill="url(#paint0_linear_2002_3)"/>
<path d="M75.9785 132.964L112.343 48.4062L113.604 488.454L76.2922 449.394C76.2922 449.394 75.9785 240.93 75.9785 132.964Z" fill="url(#paint1_linear_2002_3)"/>
<path d="M194.05 531.981L193.668 485.793C193.636 364.615 193.668 243.437 193.381 122.259L193.604 122.705V82.7681L168.779 71.8213L168.874 72.0123C150.892 64.1841 132.305 56.7059 112.381 48.4004V92.9829C112.349 219.189 112.274 361.2 112.624 487.406C114.27 489.341 118.047 492.557 118.907 493.288C122.312 496.312 125.812 499.062 129.249 501.99C139.911 510.996 151.369 519.206 162.954 526.97C169.002 531.012 175.144 534.894 181.382 538.617C182.464 539.254 194.018 545.141 194.05 546C193.922 539.604 194.368 539.237 194.05 531.981Z" fill="url(#paint2_linear_2002_3)"/>
<path d="M400 70.1673V215.562C397.486 369.007 334.916 462.729 230.428 531.241L230.998 0C247.261 6.61896 262.156 12.5697 276.956 18.7431C311.871 33.3494 346.721 48.0829 381.636 62.5619C387.747 65.1076 393.889 67.6534 400 70.1673Z" fill="url(#paint3_linear_2002_3)"/>
<path d="M76.3216 356.44C76.3216 353.958 76.3216 351.476 76.3216 348.994C76.3216 311.921 76.3216 275.199 76.2898 238.635C76.2898 237.331 76.2898 236.058 76.2898 234.753C76.2898 225.684 76.258 216.614 76.258 207.577C76.258 200.163 76.2262 192.748 76.2262 185.397C76.2262 182.438 76.2262 179.478 76.2262 176.519C76.2262 173.082 76.2262 169.677 76.1943 166.272L76.258 166.527L76.4808 132.732L71.2929 130.377C71.2929 130.377 71.2929 130.377 71.2611 130.345C71.1338 130.282 71.0065 130.218 70.8474 130.154L67.601 128.659V128.722C45.6402 118.858 23.2657 109.725 0 100.051V215.533C1.36857 298.556 20.1148 364.077 53.6288 417.57C60.1852 427.976 63.177 432.144 70.5927 441.882C70.7837 442.136 76.0352 449.074 76.2898 449.296C76.2898 423.33 76.2898 397.077 76.2898 370.76C76.3216 365.987 76.3216 361.213 76.3216 356.44Z" fill="url(#paint4_linear_2002_3)"/>
<path d="M563.233 376.713C550.668 376.713 539.15 373.858 528.679 368.146C518.398 362.244 510.117 353.582 503.834 342.159C497.742 330.736 494.696 316.458 494.696 299.323C494.696 282.189 497.647 267.91 503.548 256.487C509.641 245.064 517.827 236.497 528.108 230.786C538.579 225.074 550.287 222.218 563.233 222.218C578.083 222.218 591.219 225.455 602.642 231.928C614.065 238.401 623.108 247.444 629.772 259.057C636.435 270.48 639.767 283.902 639.767 299.323C639.767 314.744 636.435 328.261 629.772 339.875C623.108 351.488 614.065 360.531 602.642 367.004C591.219 373.477 578.083 376.713 563.233 376.713ZM482.987 430.401V223.646H509.26V264.483L507.546 299.609L510.402 334.734V430.401H482.987ZM560.949 352.725C570.658 352.725 579.32 350.536 586.936 346.157C594.741 341.778 600.834 335.591 605.212 327.595C609.782 319.408 612.066 309.985 612.066 299.323C612.066 288.471 609.782 279.143 605.212 271.337C600.834 263.341 594.741 257.154 586.936 252.775C579.32 248.396 570.658 246.207 560.949 246.207C551.429 246.207 542.767 248.396 534.961 252.775C527.346 257.154 521.254 263.341 516.685 271.337C512.306 279.143 510.117 288.471 510.117 299.323C510.117 309.985 512.306 319.408 516.685 327.595C521.254 335.591 527.346 341.778 534.961 346.157C542.767 350.536 551.429 352.725 560.949 352.725ZM733.618 376.713C717.435 376.713 703.156 373.382 690.782 366.718C678.597 360.055 669.078 350.917 662.224 339.303C655.561 327.69 652.229 314.363 652.229 299.323C652.229 284.283 655.466 270.956 661.939 259.343C668.602 247.73 677.645 238.686 689.068 232.214C700.682 225.55 713.723 222.218 728.192 222.218C742.851 222.218 755.797 225.455 767.03 231.928C778.262 238.401 787.02 247.539 793.302 259.343C799.775 270.956 803.012 284.569 803.012 300.18C803.012 301.322 802.917 302.655 802.726 304.178C802.726 305.701 802.631 307.129 802.441 308.461H673.647V288.757H788.162L777.025 295.611C777.215 285.901 775.216 277.239 771.028 269.624C766.839 262.008 761.033 256.106 753.608 251.918C746.373 247.539 737.901 245.35 728.192 245.35C718.673 245.35 710.201 247.539 702.776 251.918C695.351 256.106 689.544 262.103 685.356 269.909C681.167 277.524 679.073 286.282 679.073 296.182V300.751C679.073 310.841 681.358 319.884 685.927 327.88C690.686 335.686 697.255 341.778 705.631 346.157C714.008 350.536 723.623 352.725 734.474 352.725C743.422 352.725 751.513 351.202 758.748 348.156C766.173 345.11 772.646 340.541 778.167 334.449L793.302 352.154C786.449 360.15 777.881 366.242 767.601 370.431C757.511 374.619 746.183 376.713 733.618 376.713ZM829.657 375V223.646H855.93V264.769L853.36 254.488C857.548 244.017 864.592 236.021 874.492 230.5C884.392 224.979 896.576 222.218 911.045 222.218V248.777C909.903 248.586 908.761 248.491 907.619 248.491C906.667 248.491 905.715 248.491 904.763 248.491C890.103 248.491 878.49 252.87 869.923 261.628C861.356 270.385 857.072 283.046 857.072 299.609V375H829.657ZM1122.75 222.218C1134.93 222.218 1145.69 224.598 1155.02 229.358C1164.34 234.117 1171.58 241.352 1176.72 251.061C1182.05 260.771 1184.72 273.05 1184.72 287.9V375H1157.3V291.042C1157.3 276.382 1153.87 265.34 1147.02 257.915C1140.17 250.49 1130.55 246.778 1118.18 246.778C1109.04 246.778 1101.04 248.682 1094.19 252.489C1087.34 256.297 1082 261.913 1078.2 269.338C1074.58 276.763 1072.77 285.996 1072.77 297.039V375H1045.36V291.042C1045.36 276.382 1041.93 265.34 1035.08 257.915C1028.41 250.49 1018.8 246.778 1006.23 246.778C997.285 246.778 989.384 248.682 982.53 252.489C975.676 256.297 970.346 261.913 966.538 269.338C962.73 276.763 960.827 285.996 960.827 297.039V375H933.412V223.646H959.684V263.912L955.401 253.631C960.16 243.732 967.49 236.021 977.39 230.5C987.29 224.979 998.808 222.218 1011.94 222.218C1026.41 222.218 1038.88 225.836 1049.35 233.07C1059.83 240.114 1066.68 250.871 1069.92 265.34L1058.78 260.771C1063.35 249.158 1071.34 239.829 1082.77 232.785C1094.19 225.741 1107.52 222.218 1122.75 222.218ZM1289.99 432.115C1276.09 432.115 1262.57 430.116 1249.44 426.118C1236.49 422.31 1225.93 416.789 1217.74 409.554L1230.88 388.422C1237.92 394.514 1246.58 399.274 1256.86 402.701C1267.14 406.318 1277.9 408.126 1289.13 408.126C1307.03 408.126 1320.17 403.938 1328.54 395.561C1336.92 387.184 1341.11 374.429 1341.11 357.294V325.31L1343.96 295.325L1342.54 265.054V223.646H1368.52V354.439C1368.52 381.092 1361.86 400.702 1348.53 413.267C1335.21 425.832 1315.69 432.115 1289.99 432.115ZM1286.56 368.717C1271.9 368.717 1258.77 365.671 1247.15 359.579C1235.73 353.296 1226.59 344.634 1219.74 333.592C1213.08 322.55 1209.74 309.794 1209.74 295.325C1209.74 280.666 1213.08 267.91 1219.74 257.058C1226.59 246.016 1235.73 237.449 1247.15 231.357C1258.77 225.265 1271.9 222.218 1286.56 222.218C1299.51 222.218 1311.31 224.884 1321.97 230.214C1332.64 235.355 1341.11 243.351 1347.39 254.203C1353.86 265.054 1357.1 278.762 1357.1 295.325C1357.1 311.698 1353.86 325.31 1347.39 336.162C1341.11 347.014 1332.64 355.2 1321.97 360.721C1311.31 366.052 1299.51 368.717 1286.56 368.717ZM1289.7 344.729C1299.79 344.729 1308.74 342.635 1316.55 338.447C1324.35 334.258 1330.45 328.452 1334.82 321.027C1339.39 313.602 1341.68 305.035 1341.68 295.325C1341.68 285.616 1339.39 277.048 1334.82 269.624C1330.45 262.199 1324.35 256.487 1316.55 252.489C1308.74 248.301 1299.79 246.207 1289.7 246.207C1279.61 246.207 1270.57 248.301 1262.57 252.489C1254.77 256.487 1248.58 262.199 1244.01 269.624C1239.63 277.048 1237.44 285.616 1237.44 295.325C1237.44 305.035 1239.63 313.602 1244.01 321.027C1248.58 328.452 1254.77 334.258 1262.57 338.447C1270.57 342.635 1279.61 344.729 1289.7 344.729ZM1473.16 376.713C1460.22 376.713 1448.8 374.334 1438.9 369.574C1429.19 364.815 1421.57 357.58 1416.05 347.871C1410.72 337.971 1408.05 325.596 1408.05 310.746V223.646H1435.47V307.605C1435.47 322.455 1438.99 333.592 1446.04 341.017C1453.27 348.442 1463.36 352.154 1476.31 352.154C1485.82 352.154 1494.11 350.25 1501.15 346.443C1508.19 342.445 1513.62 336.733 1517.43 329.308C1521.24 321.693 1523.14 312.555 1523.14 301.893V223.646H1550.55V375H1524.57V334.163L1528.85 345.015C1523.9 355.105 1516.48 362.911 1506.58 368.432C1496.68 373.953 1485.54 376.713 1473.16 376.713ZM1685.28 375V343.016L1683.85 337.019V282.474C1683.85 270.861 1680.42 261.913 1673.57 255.63C1666.9 249.158 1656.81 245.921 1643.3 245.921C1634.35 245.921 1625.59 247.444 1617.02 250.49C1608.46 253.346 1601.22 257.249 1595.32 262.199L1583.9 241.637C1591.7 235.355 1601.03 230.595 1611.88 227.359C1622.93 223.932 1634.44 222.218 1646.44 222.218C1667.19 222.218 1683.18 227.264 1694.41 237.354C1705.65 247.444 1711.26 262.865 1711.26 283.617V375H1685.28ZM1635.59 376.713C1624.35 376.713 1614.45 374.81 1605.89 371.002C1597.51 367.194 1591.04 361.959 1586.47 355.295C1581.9 348.442 1579.61 340.731 1579.61 332.164C1579.61 323.978 1581.52 316.553 1585.33 309.889C1589.32 303.226 1595.7 297.895 1604.46 293.897C1613.41 289.899 1625.4 287.9 1640.44 287.9H1688.42V307.605H1641.58C1627.88 307.605 1618.64 309.889 1613.88 314.459C1609.12 319.028 1606.74 324.549 1606.74 331.022C1606.74 338.447 1609.69 344.444 1615.6 349.013C1621.5 353.392 1629.68 355.581 1640.16 355.581C1650.44 355.581 1659.38 353.296 1667 348.727C1674.81 344.158 1680.42 337.495 1683.85 328.737L1689.27 347.585C1685.66 356.533 1679.28 363.672 1670.14 369.003C1661 374.143 1649.48 376.713 1635.59 376.713ZM1750.57 375V223.646H1776.85V264.769L1774.28 254.488C1778.47 244.017 1785.51 236.021 1795.41 230.5C1805.31 224.979 1817.49 222.218 1831.96 222.218V248.777C1830.82 248.586 1829.68 248.491 1828.54 248.491C1827.58 248.491 1826.63 248.491 1825.68 248.491C1811.02 248.491 1799.41 252.87 1790.84 261.628C1782.27 270.385 1777.99 283.046 1777.99 299.609V375H1750.57ZM1915.47 376.713C1900.82 376.713 1887.68 373.477 1876.07 367.004C1864.64 360.531 1855.6 351.488 1848.94 339.875C1842.27 328.261 1838.94 314.744 1838.94 299.323C1838.94 283.902 1842.27 270.48 1848.94 259.057C1855.6 247.444 1864.64 238.401 1876.07 231.928C1887.68 225.455 1900.82 222.218 1915.47 222.218C1928.23 222.218 1939.75 225.074 1950.03 230.786C1960.31 236.497 1968.5 245.064 1974.59 256.487C1980.87 267.91 1984.01 282.189 1984.01 299.323C1984.01 316.458 1980.97 330.736 1974.87 342.159C1968.97 353.582 1960.88 362.244 1950.6 368.146C1940.32 373.858 1928.61 376.713 1915.47 376.713ZM1917.76 352.725C1927.28 352.725 1935.85 350.536 1943.46 346.157C1951.27 341.778 1957.36 335.591 1961.74 327.595C1966.31 319.408 1968.59 309.985 1968.59 299.323C1968.59 288.471 1966.31 279.143 1961.74 271.337C1957.36 263.341 1951.27 257.154 1943.46 252.775C1935.85 248.396 1927.28 246.207 1917.76 246.207C1908.05 246.207 1899.39 248.396 1891.77 252.775C1884.16 257.154 1878.06 263.341 1873.5 271.337C1868.93 279.143 1866.64 288.471 1866.64 299.323C1866.64 309.985 1868.93 319.408 1873.5 327.595C1878.06 335.591 1884.16 341.778 1891.77 346.157C1899.39 350.536 1908.05 352.725 1917.76 352.725ZM1969.45 375V334.163L1971.16 299.038L1968.31 263.912V163.105H1995.72V375H1969.45Z" fill="white"/>
<defs>
<linearGradient id="paint0_linear_2002_3" x1="210.363" y1="0.725586" x2="210.363" y2="530.168" gradientUnits="userSpaceOnUse">
<stop stop-color="#B94848"/>
<stop offset="1" stop-color="#851287"/>
</linearGradient>
<linearGradient id="paint1_linear_2002_3" x1="91.231" y1="48.4026" x2="91.231" y2="493.509" gradientUnits="userSpaceOnUse">
<stop stop-color="#B94848"/>
<stop offset="1" stop-color="#851287"/>
</linearGradient>
<linearGradient id="paint2_linear_2002_3" x1="153.2" y1="48.4004" x2="284.405" y2="546.045" gradientUnits="userSpaceOnUse">
<stop stop-color="#F25E79"/>
<stop offset="1" stop-color="#C52CF1"/>
</linearGradient>
<linearGradient id="paint3_linear_2002_3" x1="230.999" y1="-146.743" x2="315.385" y2="531.218" gradientUnits="userSpaceOnUse">
<stop stop-color="#F05C80"/>
<stop offset="1" stop-color="#CC34DF"/>
</linearGradient>
<linearGradient id="paint4_linear_2002_3" x1="-171.764" y1="-37.2616" x2="140.126" y2="584.213" gradientUnits="userSpaceOnUse">
<stop stop-color="#FFD83E"/>
<stop offset="1" stop-color="#D038D7"/>
</linearGradient>
</defs>
</svg>
