<svg width="1845" height="1231" viewBox="0 0 1845 1231" fill="none" xmlns="http://www.w3.org/2000/svg">
<path d="M911.75 231.968L953.674 140.726V670.88L916.499 685.967C916.499 685.967 911.75 360.39 911.75 231.968Z" fill="url(#paint0_linear_2002_12)"/>
<path d="M798.479 272.964L834.843 188.406L836.104 628.454L798.792 589.394C798.792 589.394 798.479 380.93 798.479 272.964Z" fill="url(#paint1_linear_2002_12)"/>
<path d="M916.55 671.981L916.168 625.793C916.136 504.615 916.168 383.437 915.881 262.259L916.104 262.705V222.768L891.279 211.821L891.374 212.012C873.392 204.184 854.805 196.706 834.881 188.4V232.983C834.849 359.189 834.774 501.2 835.124 627.406C836.77 629.341 840.547 632.557 841.407 633.288C844.812 636.312 848.312 639.062 851.749 641.99C862.411 650.996 873.869 659.206 885.454 666.97C891.502 671.012 897.644 674.894 903.882 678.617C904.964 679.254 916.518 685.141 916.55 686C916.422 679.604 916.868 679.237 916.55 671.981Z" fill="url(#paint2_linear_2002_12)"/>
<path d="M1122.5 210.167V355.562C1119.99 509.007 1057.42 602.729 952.928 671.241L953.498 140C969.761 146.619 984.656 152.57 999.456 158.743C1034.37 173.349 1069.22 188.083 1104.14 202.562C1110.25 205.108 1116.39 207.653 1122.5 210.167Z" fill="url(#paint3_linear_2002_12)"/>
<path d="M798.822 496.44C798.822 493.958 798.822 491.476 798.822 488.994C798.822 451.921 798.822 415.199 798.79 378.635C798.79 377.331 798.79 376.058 798.79 374.753C798.79 365.684 798.758 356.614 798.758 347.577C798.758 340.163 798.726 332.748 798.726 325.397C798.726 322.438 798.726 319.478 798.726 316.519C798.726 313.082 798.726 309.677 798.694 306.272L798.758 306.527L798.981 272.732L793.793 270.377C793.793 270.377 793.793 270.377 793.761 270.345C793.634 270.282 793.506 270.218 793.347 270.154L790.101 268.659V268.722C768.14 258.858 745.766 249.725 722.5 240.051V355.533C723.869 438.556 742.615 504.077 776.129 557.57C782.685 567.976 785.677 572.144 793.093 581.882C793.284 582.136 798.535 589.074 798.79 589.296C798.79 563.33 798.79 537.077 798.79 510.76C798.822 505.987 798.822 501.213 798.822 496.44Z" fill="url(#paint4_linear_2002_12)"/>
<path d="M246.233 1020.71C233.668 1020.71 222.15 1017.86 211.679 1012.15C201.398 1006.24 193.117 997.582 186.834 986.159C180.742 974.736 177.696 960.458 177.696 943.323C177.696 926.189 180.647 911.91 186.548 900.487C192.641 889.064 200.827 880.497 211.108 874.786C221.579 869.074 233.287 866.218 246.233 866.218C261.083 866.218 274.219 869.455 285.642 875.928C297.065 882.401 306.108 891.444 312.772 903.057C319.435 914.48 322.767 927.902 322.767 943.323C322.767 958.744 319.435 972.261 312.772 983.875C306.108 995.488 297.065 1004.53 285.642 1011C274.219 1017.48 261.083 1020.71 246.233 1020.71ZM165.987 1074.4V867.646H192.26V908.483L190.546 943.609L193.402 978.734V1074.4H165.987ZM243.949 996.725C253.658 996.725 262.32 994.536 269.936 990.157C277.741 985.778 283.834 979.591 288.212 971.595C292.782 963.408 295.066 953.985 295.066 943.323C295.066 932.471 292.782 923.143 288.212 915.337C283.834 907.341 277.741 901.154 269.936 896.775C262.32 892.396 253.658 890.207 243.949 890.207C234.429 890.207 225.767 892.396 217.961 896.775C210.346 901.154 204.254 907.341 199.685 915.337C195.306 923.143 193.117 932.471 193.117 943.323C193.117 953.985 195.306 963.408 199.685 971.595C204.254 979.591 210.346 985.778 217.961 990.157C225.767 994.536 234.429 996.725 243.949 996.725ZM416.618 1020.71C400.435 1020.71 386.156 1017.38 373.782 1010.72C361.597 1004.06 352.078 994.917 345.224 983.303C338.561 971.69 335.229 958.363 335.229 943.323C335.229 928.283 338.466 914.956 344.939 903.343C351.602 891.73 360.645 882.686 372.068 876.214C383.682 869.55 396.723 866.218 411.192 866.218C425.851 866.218 438.797 869.455 450.03 875.928C461.262 882.401 470.02 891.539 476.302 903.343C482.775 914.956 486.012 928.569 486.012 944.18C486.012 945.322 485.917 946.655 485.726 948.178C485.726 949.701 485.631 951.129 485.441 952.461H356.647V932.757H471.162L460.025 939.611C460.215 929.901 458.216 921.239 454.028 913.624C449.839 906.008 444.033 900.106 436.608 895.918C429.373 891.539 420.901 889.35 411.192 889.35C401.673 889.35 393.201 891.539 385.776 895.918C378.351 900.106 372.544 906.103 368.356 913.909C364.167 921.524 362.073 930.282 362.073 940.182V944.751C362.073 954.841 364.358 963.884 368.927 971.88C373.686 979.686 380.255 985.778 388.631 990.157C397.008 994.536 406.623 996.725 417.474 996.725C426.422 996.725 434.513 995.202 441.748 992.156C449.173 989.11 455.646 984.541 461.167 978.449L476.302 996.154C469.449 1004.15 460.881 1010.24 450.601 1014.43C440.511 1018.62 429.183 1020.71 416.618 1020.71ZM512.657 1019V867.646H538.93V908.769L536.36 898.488C540.548 888.017 547.592 880.021 557.492 874.5C567.392 868.979 579.576 866.218 594.045 866.218V892.777C592.903 892.586 591.761 892.491 590.619 892.491C589.667 892.491 588.715 892.491 587.763 892.491C573.103 892.491 561.49 896.87 552.923 905.628C544.356 914.385 540.072 927.046 540.072 943.609V1019H512.657ZM805.746 866.218C817.931 866.218 828.687 868.598 838.016 873.358C847.345 878.117 854.579 885.352 859.72 895.061C865.05 904.771 867.716 917.05 867.716 931.9V1019H840.301V935.042C840.301 920.382 836.874 909.34 830.02 901.915C823.166 894.49 813.552 890.778 801.177 890.778C792.039 890.778 784.043 892.682 777.189 896.489C770.335 900.297 765.005 905.913 761.197 913.338C757.58 920.763 755.771 929.996 755.771 941.039V1019H728.356V935.042C728.356 920.382 724.929 909.34 718.076 901.915C711.412 894.49 701.798 890.778 689.233 890.778C680.285 890.778 672.384 892.682 665.53 896.489C658.676 900.297 653.346 905.913 649.538 913.338C645.73 920.763 643.827 929.996 643.827 941.039V1019H616.412V867.646H642.684V907.912L638.401 897.631C643.16 887.732 650.49 880.021 660.39 874.5C670.29 868.979 681.808 866.218 694.944 866.218C709.413 866.218 721.883 869.836 732.354 877.07C742.825 884.114 749.679 894.871 752.915 909.34L741.778 904.771C746.347 893.158 754.343 883.829 765.766 876.785C777.189 869.741 790.516 866.218 805.746 866.218ZM972.99 1076.11C959.092 1076.11 945.575 1074.12 932.438 1070.12C919.492 1066.31 908.926 1060.79 900.74 1053.55L913.876 1032.42C920.92 1038.51 929.582 1043.27 939.863 1046.7C950.144 1050.32 960.9 1052.13 972.133 1052.13C990.029 1052.13 1003.17 1047.94 1011.54 1039.56C1019.92 1031.18 1024.11 1018.43 1024.11 1001.29V969.31L1026.96 939.325L1025.54 909.054V867.646H1051.52V998.439C1051.52 1025.09 1044.86 1044.7 1031.53 1057.27C1018.21 1069.83 998.691 1076.11 972.99 1076.11ZM969.563 1012.72C954.903 1012.72 941.767 1009.67 930.154 1003.58C918.731 997.296 909.592 988.634 902.739 977.592C896.075 966.55 892.744 953.794 892.744 939.325C892.744 924.666 896.075 911.91 902.739 901.058C909.592 890.016 918.731 881.449 930.154 875.357C941.767 869.265 954.903 866.218 969.563 866.218C982.509 866.218 994.312 868.884 1004.97 874.214C1015.64 879.355 1024.11 887.351 1030.39 898.203C1036.86 909.054 1040.1 922.762 1040.1 939.325C1040.1 955.698 1036.86 969.31 1030.39 980.162C1024.11 991.014 1015.64 999.2 1004.97 1004.72C994.312 1010.05 982.509 1012.72 969.563 1012.72ZM972.704 988.729C982.794 988.729 991.742 986.635 999.548 982.447C1007.35 978.258 1013.45 972.452 1017.82 965.027C1022.39 957.602 1024.68 949.035 1024.68 939.325C1024.68 929.616 1022.39 921.048 1017.82 913.624C1013.45 906.199 1007.35 900.487 999.548 896.489C991.742 892.301 982.794 890.207 972.704 890.207C962.614 890.207 953.571 892.301 945.575 896.489C937.769 900.487 931.582 906.199 927.012 913.624C922.634 921.048 920.444 929.616 920.444 939.325C920.444 949.035 922.634 957.602 927.012 965.027C931.582 972.452 937.769 978.258 945.575 982.447C953.571 986.635 962.614 988.729 972.704 988.729ZM1156.16 1020.71C1143.22 1020.71 1131.8 1018.33 1121.9 1013.57C1112.19 1008.81 1104.57 1001.58 1099.05 991.871C1093.72 981.971 1091.05 969.596 1091.05 954.746V867.646H1118.47V951.605C1118.47 966.455 1121.99 977.592 1129.04 985.017C1136.27 992.442 1146.36 996.154 1159.31 996.154C1168.82 996.154 1177.11 994.25 1184.15 990.443C1191.19 986.445 1196.62 980.733 1200.43 973.308C1204.24 965.693 1206.14 956.555 1206.14 945.893V867.646H1233.55V1019H1207.57V978.163L1211.85 989.015C1206.9 999.105 1199.48 1006.91 1189.58 1012.43C1179.68 1017.95 1168.54 1020.71 1156.16 1020.71ZM1368.28 1019V987.016L1366.85 981.019V926.474C1366.85 914.861 1363.42 905.913 1356.57 899.63C1349.9 893.158 1339.81 889.921 1326.3 889.921C1317.35 889.921 1308.59 891.444 1300.02 894.49C1291.46 897.346 1284.22 901.249 1278.32 906.199L1266.9 885.637C1274.7 879.355 1284.03 874.595 1294.88 871.359C1305.93 867.932 1317.44 866.218 1329.44 866.218C1350.19 866.218 1366.18 871.264 1377.41 881.354C1388.65 891.444 1394.26 906.865 1394.26 927.617V1019H1368.28ZM1318.59 1020.71C1307.35 1020.71 1297.45 1018.81 1288.89 1015C1280.51 1011.19 1274.04 1005.96 1269.47 999.295C1264.9 992.442 1262.61 984.731 1262.61 976.164C1262.61 967.978 1264.52 960.553 1268.33 953.889C1272.32 947.226 1278.7 941.895 1287.46 937.897C1296.41 933.899 1308.4 931.9 1323.44 931.9H1371.42V951.605H1324.58C1310.88 951.605 1301.64 953.889 1296.88 958.459C1292.12 963.028 1289.74 968.549 1289.74 975.022C1289.74 982.447 1292.69 988.444 1298.6 993.013C1304.5 997.392 1312.68 999.581 1323.16 999.581C1333.44 999.581 1342.38 997.296 1350 992.727C1357.81 988.158 1363.42 981.495 1366.85 972.737L1372.27 991.585C1368.66 1000.53 1362.28 1007.67 1353.14 1013C1344 1018.14 1332.48 1020.71 1318.59 1020.71ZM1433.57 1019V867.646H1459.85V908.769L1457.28 898.488C1461.47 888.017 1468.51 880.021 1478.41 874.5C1488.31 868.979 1500.49 866.218 1514.96 866.218V892.777C1513.82 892.586 1512.68 892.491 1511.54 892.491C1510.58 892.491 1509.63 892.491 1508.68 892.491C1494.02 892.491 1482.41 896.87 1473.84 905.628C1465.27 914.385 1460.99 927.046 1460.99 943.609V1019H1433.57ZM1598.47 1020.71C1583.82 1020.71 1570.68 1017.48 1559.07 1011C1547.64 1004.53 1538.6 995.488 1531.94 983.875C1525.27 972.261 1521.94 958.744 1521.94 943.323C1521.94 927.902 1525.27 914.48 1531.94 903.057C1538.6 891.444 1547.64 882.401 1559.07 875.928C1570.68 869.455 1583.82 866.218 1598.47 866.218C1611.23 866.218 1622.75 869.074 1633.03 874.786C1643.31 880.497 1651.5 889.064 1657.59 900.487C1663.87 911.91 1667.01 926.189 1667.01 943.323C1667.01 960.458 1663.97 974.736 1657.87 986.159C1651.97 997.582 1643.88 1006.24 1633.6 1012.15C1623.32 1017.86 1611.61 1020.71 1598.47 1020.71ZM1600.76 996.725C1610.28 996.725 1618.85 994.536 1626.46 990.157C1634.27 985.778 1640.36 979.591 1644.74 971.595C1649.31 963.408 1651.59 953.985 1651.59 943.323C1651.59 932.471 1649.31 923.143 1644.74 915.337C1640.36 907.341 1634.27 901.154 1626.46 896.775C1618.85 892.396 1610.28 890.207 1600.76 890.207C1591.05 890.207 1582.39 892.396 1574.77 896.775C1567.16 901.154 1561.06 907.341 1556.5 915.337C1551.93 923.143 1549.64 932.471 1549.64 943.323C1549.64 953.985 1551.93 963.408 1556.5 971.595C1561.06 979.591 1567.16 985.778 1574.77 990.157C1582.39 994.536 1591.05 996.725 1600.76 996.725ZM1652.45 1019V978.163L1654.16 943.038L1651.31 907.912V807.105H1678.72V1019H1652.45Z" fill="white"/>
<defs>
<linearGradient id="paint0_linear_2002_12" x1="932.863" y1="140.726" x2="932.863" y2="670.168" gradientUnits="userSpaceOnUse">
<stop stop-color="#B94848"/>
<stop offset="1" stop-color="#851287"/>
</linearGradient>
<linearGradient id="paint1_linear_2002_12" x1="813.731" y1="188.403" x2="813.731" y2="633.509" gradientUnits="userSpaceOnUse">
<stop stop-color="#B94848"/>
<stop offset="1" stop-color="#851287"/>
</linearGradient>
<linearGradient id="paint2_linear_2002_12" x1="875.7" y1="188.4" x2="1006.9" y2="686.045" gradientUnits="userSpaceOnUse">
<stop stop-color="#F25E79"/>
<stop offset="1" stop-color="#C52CF1"/>
</linearGradient>
<linearGradient id="paint3_linear_2002_12" x1="953.499" y1="-6.7427" x2="1037.89" y2="671.218" gradientUnits="userSpaceOnUse">
<stop stop-color="#F05C80"/>
<stop offset="1" stop-color="#CC34DF"/>
</linearGradient>
<linearGradient id="paint4_linear_2002_12" x1="550.736" y1="102.738" x2="862.626" y2="724.213" gradientUnits="userSpaceOnUse">
<stop stop-color="#FFD83E"/>
<stop offset="1" stop-color="#D038D7"/>
</linearGradient>
</defs>
</svg>
