<svg width="2026" height="554" viewBox="0 0 2026 554" fill="none" xmlns="http://www.w3.org/2000/svg">
<g filter="url(#filter0_d_50_653)">
<path d="M193.25 91.9676L235.174 0.725586V530.88L197.999 545.967C197.999 545.967 193.25 220.39 193.25 91.9676Z" fill="#515151"/>
<path d="M79.9785 132.964L116.343 48.4062L117.604 488.454L80.2922 449.394C80.2922 449.394 79.9785 240.93 79.9785 132.964Z" fill="#515151"/>
<path d="M198.05 531.981L197.668 485.793C197.636 364.615 197.668 243.437 197.381 122.259L197.604 122.705V82.7681L172.779 71.8213L172.874 72.0123C154.892 64.1841 136.305 56.7059 116.381 48.4004V92.9829C116.349 219.189 116.274 361.2 116.624 487.406C118.27 489.341 122.047 492.557 122.907 493.288C126.312 496.312 129.812 499.062 133.249 501.99C143.911 510.996 155.369 519.206 166.954 526.97C173.002 531.012 179.144 534.894 185.382 538.617C186.464 539.254 198.018 545.141 198.05 546C197.922 539.604 198.368 539.237 198.05 531.981Z" fill="black"/>
<path d="M404 70.1673V215.562C401.486 369.007 338.916 462.729 234.428 531.241L234.998 0C251.261 6.61896 266.156 12.5697 280.956 18.7431C315.871 33.3494 350.721 48.0829 385.636 62.5619C391.747 65.1076 397.889 67.6534 404 70.1673Z" fill="black"/>
<path d="M80.3216 356.44C80.3216 353.958 80.3216 351.476 80.3216 348.994C80.3216 311.921 80.3216 275.199 80.2898 238.635C80.2898 237.331 80.2898 236.058 80.2898 234.753C80.2898 225.684 80.258 216.614 80.258 207.577C80.258 200.163 80.2262 192.748 80.2262 185.397C80.2262 182.438 80.2262 179.478 80.2262 176.519C80.2262 173.082 80.2262 169.677 80.1943 166.272L80.258 166.527L80.4808 132.732L75.2929 130.377C75.2929 130.377 75.2929 130.377 75.2611 130.345C75.1338 130.282 75.0065 130.218 74.8474 130.154L71.601 128.659V128.722C49.6402 118.858 27.2657 109.725 4 100.051V215.533C5.36857 298.556 24.1148 364.077 57.6288 417.57C64.1852 427.976 67.177 432.144 74.5927 441.882C74.7837 442.136 80.0352 449.074 80.2898 449.296C80.2898 423.33 80.2898 397.077 80.2898 370.76C80.3216 365.987 80.3216 361.213 80.3216 356.44Z" fill="black"/>
<path d="M567.233 376.713C554.668 376.713 543.15 373.858 532.679 368.146C522.398 362.244 514.117 353.582 507.834 342.159C501.742 330.736 498.696 316.458 498.696 299.323C498.696 282.189 501.647 267.91 507.548 256.487C513.641 245.064 521.827 236.497 532.108 230.786C542.579 225.074 554.287 222.218 567.233 222.218C582.083 222.218 595.219 225.455 606.642 231.928C618.065 238.401 627.108 247.444 633.772 259.057C640.435 270.48 643.767 283.902 643.767 299.323C643.767 314.744 640.435 328.261 633.772 339.875C627.108 351.488 618.065 360.531 606.642 367.004C595.219 373.477 582.083 376.713 567.233 376.713ZM486.987 430.401V223.646H513.26V264.483L511.546 299.609L514.402 334.734V430.401H486.987ZM564.949 352.725C574.658 352.725 583.32 350.536 590.936 346.157C598.741 341.778 604.834 335.591 609.212 327.595C613.782 319.408 616.066 309.985 616.066 299.323C616.066 288.471 613.782 279.143 609.212 271.337C604.834 263.341 598.741 257.154 590.936 252.775C583.32 248.396 574.658 246.207 564.949 246.207C555.429 246.207 546.767 248.396 538.961 252.775C531.346 257.154 525.254 263.341 520.685 271.337C516.306 279.143 514.117 288.471 514.117 299.323C514.117 309.985 516.306 319.408 520.685 327.595C525.254 335.591 531.346 341.778 538.961 346.157C546.767 350.536 555.429 352.725 564.949 352.725ZM737.618 376.713C721.435 376.713 707.156 373.382 694.782 366.718C682.597 360.055 673.078 350.917 666.224 339.303C659.561 327.69 656.229 314.363 656.229 299.323C656.229 284.283 659.466 270.956 665.939 259.343C672.602 247.73 681.645 238.686 693.068 232.214C704.682 225.55 717.723 222.218 732.192 222.218C746.851 222.218 759.797 225.455 771.03 231.928C782.262 238.401 791.02 247.539 797.302 259.343C803.775 270.956 807.012 284.569 807.012 300.18C807.012 301.322 806.917 302.655 806.726 304.178C806.726 305.701 806.631 307.129 806.441 308.461H677.647V288.757H792.162L781.025 295.611C781.215 285.901 779.216 277.239 775.028 269.624C770.839 262.008 765.033 256.106 757.608 251.918C750.373 247.539 741.901 245.35 732.192 245.35C722.673 245.35 714.201 247.539 706.776 251.918C699.351 256.106 693.544 262.103 689.356 269.909C685.167 277.524 683.073 286.282 683.073 296.182V300.751C683.073 310.841 685.358 319.884 689.927 327.88C694.686 335.686 701.255 341.778 709.631 346.157C718.008 350.536 727.623 352.725 738.474 352.725C747.422 352.725 755.513 351.202 762.748 348.156C770.173 345.11 776.646 340.541 782.167 334.449L797.302 352.154C790.449 360.15 781.881 366.242 771.601 370.431C761.511 374.619 750.183 376.713 737.618 376.713ZM833.657 375V223.646H859.93V264.769L857.36 254.488C861.548 244.017 868.592 236.021 878.492 230.5C888.392 224.979 900.576 222.218 915.045 222.218V248.777C913.903 248.586 912.761 248.491 911.619 248.491C910.667 248.491 909.715 248.491 908.763 248.491C894.103 248.491 882.49 252.87 873.923 261.628C865.356 270.385 861.072 283.046 861.072 299.609V375H833.657ZM1126.75 222.218C1138.93 222.218 1149.69 224.598 1159.02 229.358C1168.34 234.117 1175.58 241.352 1180.72 251.061C1186.05 260.771 1188.72 273.05 1188.72 287.9V375H1161.3V291.042C1161.3 276.382 1157.87 265.34 1151.02 257.915C1144.17 250.49 1134.55 246.778 1122.18 246.778C1113.04 246.778 1105.04 248.682 1098.19 252.489C1091.34 256.297 1086 261.913 1082.2 269.338C1078.58 276.763 1076.77 285.996 1076.77 297.039V375H1049.36V291.042C1049.36 276.382 1045.93 265.34 1039.08 257.915C1032.41 250.49 1022.8 246.778 1010.23 246.778C1001.28 246.778 993.384 248.682 986.53 252.489C979.676 256.297 974.346 261.913 970.538 269.338C966.73 276.763 964.827 285.996 964.827 297.039V375H937.412V223.646H963.684V263.912L959.401 253.631C964.16 243.732 971.49 236.021 981.39 230.5C991.29 224.979 1002.81 222.218 1015.94 222.218C1030.41 222.218 1042.88 225.836 1053.35 233.07C1063.83 240.114 1070.68 250.871 1073.92 265.34L1062.78 260.771C1067.35 249.158 1075.34 239.829 1086.77 232.785C1098.19 225.741 1111.52 222.218 1126.75 222.218ZM1293.99 432.115C1280.09 432.115 1266.57 430.116 1253.44 426.118C1240.49 422.31 1229.93 416.789 1221.74 409.554L1234.88 388.422C1241.92 394.514 1250.58 399.274 1260.86 402.701C1271.14 406.318 1281.9 408.126 1293.13 408.126C1311.03 408.126 1324.17 403.938 1332.54 395.561C1340.92 387.184 1345.11 374.429 1345.11 357.294V325.31L1347.96 295.325L1346.54 265.054V223.646H1372.52V354.439C1372.52 381.092 1365.86 400.702 1352.53 413.267C1339.21 425.832 1319.69 432.115 1293.99 432.115ZM1290.56 368.717C1275.9 368.717 1262.77 365.671 1251.15 359.579C1239.73 353.296 1230.59 344.634 1223.74 333.592C1217.08 322.55 1213.74 309.794 1213.74 295.325C1213.74 280.666 1217.08 267.91 1223.74 257.058C1230.59 246.016 1239.73 237.449 1251.15 231.357C1262.77 225.265 1275.9 222.218 1290.56 222.218C1303.51 222.218 1315.31 224.884 1325.97 230.214C1336.64 235.355 1345.11 243.351 1351.39 254.203C1357.86 265.054 1361.1 278.762 1361.1 295.325C1361.1 311.698 1357.86 325.31 1351.39 336.162C1345.11 347.014 1336.64 355.2 1325.97 360.721C1315.31 366.052 1303.51 368.717 1290.56 368.717ZM1293.7 344.729C1303.79 344.729 1312.74 342.635 1320.55 338.447C1328.35 334.258 1334.45 328.452 1338.82 321.027C1343.39 313.602 1345.68 305.035 1345.68 295.325C1345.68 285.616 1343.39 277.048 1338.82 269.624C1334.45 262.199 1328.35 256.487 1320.55 252.489C1312.74 248.301 1303.79 246.207 1293.7 246.207C1283.61 246.207 1274.57 248.301 1266.57 252.489C1258.77 256.487 1252.58 262.199 1248.01 269.624C1243.63 277.048 1241.44 285.616 1241.44 295.325C1241.44 305.035 1243.63 313.602 1248.01 321.027C1252.58 328.452 1258.77 334.258 1266.57 338.447C1274.57 342.635 1283.61 344.729 1293.7 344.729ZM1477.16 376.713C1464.22 376.713 1452.8 374.334 1442.9 369.574C1433.19 364.815 1425.57 357.58 1420.05 347.871C1414.72 337.971 1412.05 325.596 1412.05 310.746V223.646H1439.47V307.605C1439.47 322.455 1442.99 333.592 1450.04 341.017C1457.27 348.442 1467.36 352.154 1480.31 352.154C1489.82 352.154 1498.11 350.25 1505.15 346.443C1512.19 342.445 1517.62 336.733 1521.43 329.308C1525.24 321.693 1527.14 312.555 1527.14 301.893V223.646H1554.55V375H1528.57V334.163L1532.85 345.015C1527.9 355.105 1520.48 362.911 1510.58 368.432C1500.68 373.953 1489.54 376.713 1477.16 376.713ZM1689.28 375V343.016L1687.85 337.019V282.474C1687.85 270.861 1684.42 261.913 1677.57 255.63C1670.9 249.158 1660.81 245.921 1647.3 245.921C1638.35 245.921 1629.59 247.444 1621.02 250.49C1612.46 253.346 1605.22 257.249 1599.32 262.199L1587.9 241.637C1595.7 235.355 1605.03 230.595 1615.88 227.359C1626.93 223.932 1638.44 222.218 1650.44 222.218C1671.19 222.218 1687.18 227.264 1698.41 237.354C1709.65 247.444 1715.26 262.865 1715.26 283.617V375H1689.28ZM1639.59 376.713C1628.35 376.713 1618.45 374.81 1609.89 371.002C1601.51 367.194 1595.04 361.959 1590.47 355.295C1585.9 348.442 1583.61 340.731 1583.61 332.164C1583.61 323.978 1585.52 316.553 1589.33 309.889C1593.32 303.226 1599.7 297.895 1608.46 293.897C1617.41 289.899 1629.4 287.9 1644.44 287.9H1692.42V307.605H1645.58C1631.88 307.605 1622.64 309.889 1617.88 314.459C1613.12 319.028 1610.74 324.549 1610.74 331.022C1610.74 338.447 1613.69 344.444 1619.6 349.013C1625.5 353.392 1633.68 355.581 1644.16 355.581C1654.44 355.581 1663.38 353.296 1671 348.727C1678.81 344.158 1684.42 337.495 1687.85 328.737L1693.27 347.585C1689.66 356.533 1683.28 363.672 1674.14 369.003C1665 374.143 1653.48 376.713 1639.59 376.713ZM1754.57 375V223.646H1780.85V264.769L1778.28 254.488C1782.47 244.017 1789.51 236.021 1799.41 230.5C1809.31 224.979 1821.49 222.218 1835.96 222.218V248.777C1834.82 248.586 1833.68 248.491 1832.54 248.491C1831.58 248.491 1830.63 248.491 1829.68 248.491C1815.02 248.491 1803.41 252.87 1794.84 261.628C1786.27 270.385 1781.99 283.046 1781.99 299.609V375H1754.57ZM1919.47 376.713C1904.82 376.713 1891.68 373.477 1880.07 367.004C1868.64 360.531 1859.6 351.488 1852.94 339.875C1846.27 328.261 1842.94 314.744 1842.94 299.323C1842.94 283.902 1846.27 270.48 1852.94 259.057C1859.6 247.444 1868.64 238.401 1880.07 231.928C1891.68 225.455 1904.82 222.218 1919.47 222.218C1932.23 222.218 1943.75 225.074 1954.03 230.786C1964.31 236.497 1972.5 245.064 1978.59 256.487C1984.87 267.91 1988.01 282.189 1988.01 299.323C1988.01 316.458 1984.97 330.736 1978.87 342.159C1972.97 353.582 1964.88 362.244 1954.6 368.146C1944.32 373.858 1932.61 376.713 1919.47 376.713ZM1921.76 352.725C1931.28 352.725 1939.85 350.536 1947.46 346.157C1955.27 341.778 1961.36 335.591 1965.74 327.595C1970.31 319.408 1972.59 309.985 1972.59 299.323C1972.59 288.471 1970.31 279.143 1965.74 271.337C1961.36 263.341 1955.27 257.154 1947.46 252.775C1939.85 248.396 1931.28 246.207 1921.76 246.207C1912.05 246.207 1903.39 248.396 1895.77 252.775C1888.16 257.154 1882.06 263.341 1877.5 271.337C1872.93 279.143 1870.64 288.471 1870.64 299.323C1870.64 309.985 1872.93 319.408 1877.5 327.595C1882.06 335.591 1888.16 341.778 1895.77 346.157C1903.39 350.536 1912.05 352.725 1921.76 352.725ZM1973.45 375V334.163L1975.16 299.038L1972.31 263.912V163.105H1999.72V375H1973.45Z" fill="black"/>
</g>
<defs>
<filter id="filter0_d_50_653" x="0" y="0" width="2030" height="554" filterUnits="userSpaceOnUse" color-interpolation-filters="sRGB">
<feFlood flood-opacity="0" result="BackgroundImageFix"/>
<feColorMatrix in="SourceAlpha" type="matrix" values="0 0 0 0 0 0 0 0 0 0 0 0 0 0 0 0 0 0 127 0" result="hardAlpha"/>
<feOffset dy="4"/>
<feGaussianBlur stdDeviation="2"/>
<feComposite in2="hardAlpha" operator="out"/>
<feColorMatrix type="matrix" values="0 0 0 0 0 0 0 0 0 0 0 0 0 0 0 0 0 0 0.25 0"/>
<feBlend mode="normal" in2="BackgroundImageFix" result="effect1_dropShadow_50_653"/>
<feBlend mode="normal" in="SourceGraphic" in2="effect1_dropShadow_50_653" result="shape"/>
</filter>
</defs>
</svg>
