<svg width="1853" height="1231" viewBox="0 0 1853 1231" fill="none" xmlns="http://www.w3.org/2000/svg">
<rect width="1853" height="1231" fill="white"/>
<path d="M915.75 231.968L957.674 140.726V670.881L920.499 685.967C920.499 685.967 915.75 360.39 915.75 231.968Z" fill="url(#paint0_linear_1_732)"/>
<path d="M802.479 272.964L838.843 188.406L840.104 628.453L802.792 589.393C802.792 589.393 802.479 380.929 802.479 272.964Z" fill="url(#paint1_linear_1_732)"/>
<path d="M920.55 671.981L920.168 625.793C920.136 504.615 920.168 383.437 919.881 262.259L920.104 262.705V222.768L895.279 211.821L895.374 212.012C877.392 204.184 858.805 196.706 838.881 188.4V232.983C838.849 359.189 838.774 501.2 839.124 627.406C840.77 629.341 844.547 632.557 845.407 633.288C848.812 636.312 852.312 639.062 855.749 641.99C866.411 650.996 877.869 659.206 889.454 666.97C895.502 671.012 901.644 674.894 907.882 678.617C908.964 679.254 920.518 685.141 920.55 686C920.422 679.604 920.868 679.237 920.55 671.981Z" fill="url(#paint2_linear_1_732)"/>
<path d="M1126.5 210.167V355.562C1123.99 509.007 1061.42 602.729 956.928 671.241L957.498 140C973.761 146.619 988.656 152.57 1003.46 158.743C1038.37 173.349 1073.22 188.083 1108.14 202.562C1114.25 205.108 1120.39 207.653 1126.5 210.167Z" fill="url(#paint3_linear_1_732)"/>
<path d="M802.822 496.44C802.822 493.957 802.822 491.475 802.822 488.993C802.822 451.921 802.822 415.198 802.79 378.635C802.79 377.33 802.79 376.057 802.79 374.752C802.79 365.683 802.758 356.614 802.758 347.577C802.758 340.162 802.726 332.748 802.726 325.397C802.726 322.437 802.726 319.478 802.726 316.518C802.726 313.082 802.726 309.677 802.694 306.272L802.758 306.526L802.981 272.731L797.793 270.377C797.793 270.377 797.793 270.377 797.761 270.345C797.634 270.281 797.507 270.217 797.347 270.154L794.101 268.658V268.722C772.14 258.857 749.766 249.724 726.5 240.05V355.532C727.869 438.555 746.615 504.077 780.129 557.569C786.685 567.975 789.677 572.144 797.093 581.881C797.284 582.136 802.535 589.073 802.79 589.296C802.79 563.329 802.79 537.076 802.79 510.759C802.822 505.986 802.822 501.213 802.822 496.44Z" fill="url(#paint4_linear_1_732)"/>
<path d="M169.985 1019V819.099H247.947C265.462 819.099 280.407 821.859 292.782 827.381C305.156 832.902 314.675 840.898 321.339 851.369C328.002 861.84 331.334 874.31 331.334 888.779C331.334 903.248 328.002 915.718 321.339 926.189C314.675 936.469 305.156 944.465 292.782 950.177C280.407 955.698 265.462 958.459 247.947 958.459H185.692L198.542 945.037V1019H169.985ZM198.542 947.892L185.692 933.614H247.09C265.367 933.614 279.169 929.711 288.498 921.905C298.017 914.1 302.777 903.057 302.777 888.779C302.777 874.5 298.017 863.458 288.498 855.652C279.169 847.847 265.367 843.944 247.09 843.944H185.692L198.542 829.665V947.892ZM424.705 1020.71C408.523 1020.71 394.244 1017.38 381.869 1010.72C369.685 1004.06 360.166 994.917 353.312 983.303C346.648 971.69 343.317 958.363 343.317 943.323C343.317 928.283 346.553 914.956 353.026 903.343C359.69 891.73 368.733 882.686 380.156 876.214C391.769 869.55 404.81 866.218 419.279 866.218C433.939 866.218 446.885 869.455 458.117 875.928C469.35 882.401 478.107 891.539 484.39 903.343C490.863 914.956 494.099 928.569 494.099 944.18C494.099 945.322 494.004 946.655 493.814 948.178C493.814 949.701 493.719 951.129 493.528 952.461H364.735V932.757H479.25L468.112 939.611C468.303 929.901 466.304 921.239 462.115 913.624C457.927 906.008 452.12 900.106 444.695 895.918C437.461 891.539 428.989 889.35 419.279 889.35C409.76 889.35 401.288 891.539 393.863 895.918C386.438 900.106 380.632 906.103 376.443 913.909C372.255 921.524 370.161 930.282 370.161 940.182V944.751C370.161 954.841 372.445 963.884 377.014 971.88C381.774 979.686 388.342 985.778 396.719 990.157C405.096 994.536 414.71 996.725 425.562 996.725C434.51 996.725 442.601 995.202 449.836 992.156C457.26 989.11 463.733 984.541 469.254 978.449L484.39 996.154C477.536 1004.15 468.969 1010.24 458.688 1014.43C448.598 1018.62 437.27 1020.71 424.705 1020.71ZM520.745 1019V867.646H547.017V908.769L544.447 898.488C548.636 888.017 555.68 880.021 565.58 874.5C575.479 868.979 587.664 866.218 602.133 866.218V892.777C600.991 892.586 599.848 892.491 598.706 892.491C597.754 892.491 596.802 892.491 595.85 892.491C581.191 892.491 569.578 896.87 561.01 905.628C552.443 914.385 548.16 927.046 548.16 943.609V1019H520.745ZM813.834 866.218C826.018 866.218 836.775 868.598 846.104 873.358C855.432 878.117 862.667 885.352 867.807 895.061C873.138 904.771 875.803 917.05 875.803 931.9V1019H848.388V935.042C848.388 920.382 844.961 909.34 838.108 901.915C831.254 894.49 821.64 890.778 809.265 890.778C800.126 890.778 792.13 892.682 785.277 896.489C778.423 900.297 773.092 905.913 769.285 913.338C765.667 920.763 763.859 929.996 763.859 941.039V1019H736.444V935.042C736.444 920.382 733.017 909.34 726.163 901.915C719.5 894.49 709.885 890.778 697.32 890.778C688.372 890.778 680.471 892.682 673.618 896.489C666.764 900.297 661.433 905.913 657.626 913.338C653.818 920.763 651.914 929.996 651.914 941.039V1019H624.499V867.646H650.772V907.912L646.488 897.631C651.248 887.732 658.577 880.021 668.477 874.5C678.377 868.979 689.895 866.218 703.032 866.218C717.501 866.218 729.971 869.836 740.442 877.07C750.913 884.114 757.766 894.871 761.003 909.34L749.866 904.771C754.435 893.158 762.431 883.829 773.854 876.785C785.277 869.741 798.603 866.218 813.834 866.218ZM981.077 1076.11C967.179 1076.11 953.662 1074.12 940.526 1070.12C927.58 1066.31 917.014 1060.79 908.827 1053.55L921.964 1032.42C929.008 1038.51 937.67 1043.27 947.951 1046.7C958.231 1050.32 968.988 1052.13 980.22 1052.13C998.116 1052.13 1011.25 1047.94 1019.63 1039.56C1028.01 1031.18 1032.19 1018.43 1032.19 1001.29V969.31L1035.05 939.325L1033.62 909.054V867.646H1059.61V998.439C1059.61 1025.09 1052.95 1044.7 1039.62 1057.27C1026.29 1069.83 1006.78 1076.11 981.077 1076.11ZM977.65 1012.72C962.991 1012.72 949.854 1009.67 938.241 1003.58C926.818 997.296 917.68 988.634 910.826 977.592C904.163 966.55 900.831 953.794 900.831 939.325C900.831 924.666 904.163 911.91 910.826 901.058C917.68 890.016 926.818 881.449 938.241 875.357C949.854 869.265 962.991 866.218 977.65 866.218C990.596 866.218 1002.4 868.884 1013.06 874.214C1023.72 879.355 1032.19 887.351 1038.48 898.203C1044.95 909.054 1048.19 922.762 1048.19 939.325C1048.19 955.698 1044.95 969.31 1038.48 980.162C1032.19 991.014 1023.72 999.2 1013.06 1004.72C1002.4 1010.05 990.596 1012.72 977.65 1012.72ZM980.792 988.729C990.882 988.729 999.83 986.635 1007.64 982.447C1015.44 978.258 1021.53 972.452 1025.91 965.027C1030.48 957.602 1032.77 949.035 1032.77 939.325C1032.77 929.616 1030.48 921.048 1025.91 913.624C1021.53 906.199 1015.44 900.487 1007.64 896.489C999.83 892.301 990.882 890.207 980.792 890.207C970.701 890.207 961.658 892.301 953.662 896.489C945.856 900.487 939.669 906.199 935.1 913.624C930.721 921.048 928.532 929.616 928.532 939.325C928.532 949.035 930.721 957.602 935.1 965.027C939.669 972.452 945.856 978.258 953.662 982.447C961.658 986.635 970.701 988.729 980.792 988.729ZM1164.25 1020.71C1151.31 1020.71 1139.88 1018.33 1129.98 1013.57C1120.27 1008.81 1112.66 1001.58 1107.14 991.871C1101.81 981.971 1099.14 969.596 1099.14 954.746V867.646H1126.56V951.605C1126.56 966.455 1130.08 977.592 1137.12 985.017C1144.36 992.442 1154.45 996.154 1167.39 996.154C1176.91 996.154 1185.19 994.25 1192.24 990.443C1199.28 986.445 1204.71 980.733 1208.52 973.308C1212.32 965.693 1214.23 956.555 1214.23 945.893V867.646H1241.64V1019H1215.66V978.163L1219.94 989.015C1214.99 999.105 1207.56 1006.91 1197.66 1012.43C1187.76 1017.95 1176.63 1020.71 1164.25 1020.71ZM1376.36 1019V987.016L1374.94 981.019V926.474C1374.94 914.861 1371.51 905.913 1364.66 899.63C1357.99 893.158 1347.9 889.921 1334.38 889.921C1325.44 889.921 1316.68 891.444 1308.11 894.49C1299.54 897.346 1292.31 901.249 1286.41 906.199L1274.99 885.637C1282.79 879.355 1292.12 874.595 1302.97 871.359C1314.01 867.932 1325.53 866.218 1337.53 866.218C1358.28 866.218 1374.27 871.264 1385.5 881.354C1396.73 891.444 1402.35 906.865 1402.35 927.617V1019H1376.36ZM1326.67 1020.71C1315.44 1020.71 1305.54 1018.81 1296.97 1015C1288.6 1011.19 1282.12 1005.96 1277.56 999.295C1272.99 992.442 1270.7 984.731 1270.7 976.164C1270.7 967.978 1272.61 960.553 1276.41 953.889C1280.41 947.226 1286.79 941.895 1295.55 937.897C1304.49 933.899 1316.49 931.9 1331.53 931.9H1379.5V951.605H1332.67C1318.96 951.605 1309.73 953.889 1304.97 958.459C1300.21 963.028 1297.83 968.549 1297.83 975.022C1297.83 982.447 1300.78 988.444 1306.68 993.013C1312.59 997.392 1320.77 999.581 1331.24 999.581C1341.52 999.581 1350.47 997.296 1358.09 992.727C1365.89 988.158 1371.51 981.495 1374.94 972.737L1380.36 991.585C1376.74 1000.53 1370.37 1007.67 1361.23 1013C1352.09 1018.14 1340.57 1020.71 1326.67 1020.71ZM1441.66 1019V867.646H1467.93V908.769L1465.36 898.488C1469.55 888.017 1476.6 880.021 1486.5 874.5C1496.4 868.979 1508.58 866.218 1523.05 866.218V892.777C1521.91 892.586 1520.77 892.491 1519.62 892.491C1518.67 892.491 1517.72 892.491 1516.77 892.491C1502.11 892.491 1490.49 896.87 1481.93 905.628C1473.36 914.385 1469.08 927.046 1469.08 943.609V1019H1441.66ZM1606.56 1020.71C1591.9 1020.71 1578.77 1017.48 1567.15 1011C1555.73 1004.53 1546.69 995.488 1540.02 983.875C1533.36 972.261 1530.03 958.744 1530.03 943.323C1530.03 927.902 1533.36 914.48 1540.02 903.057C1546.69 891.444 1555.73 882.401 1567.15 875.928C1578.77 869.455 1591.9 866.218 1606.56 866.218C1619.32 866.218 1630.84 869.074 1641.12 874.786C1651.4 880.497 1659.58 889.064 1665.68 900.487C1671.96 911.91 1675.1 926.189 1675.1 943.323C1675.1 960.458 1672.05 974.736 1665.96 986.159C1660.06 997.582 1651.97 1006.24 1641.69 1012.15C1631.41 1017.86 1619.7 1020.71 1606.56 1020.71ZM1608.85 996.725C1618.37 996.725 1626.93 994.536 1634.55 990.157C1642.35 985.778 1648.45 979.591 1652.82 971.595C1657.39 963.408 1659.68 953.985 1659.68 943.323C1659.68 932.471 1657.39 923.143 1652.82 915.337C1648.45 907.341 1642.35 901.154 1634.55 896.775C1626.93 892.396 1618.37 890.207 1608.85 890.207C1599.14 890.207 1590.47 892.396 1582.86 896.775C1575.24 901.154 1569.15 907.341 1564.58 915.337C1560.01 923.143 1557.73 932.471 1557.73 943.323C1557.73 953.985 1560.01 963.408 1564.58 971.595C1569.15 979.591 1575.24 985.778 1582.86 990.157C1590.47 994.536 1599.14 996.725 1608.85 996.725ZM1660.54 1019V978.163L1662.25 943.038L1659.39 907.912V807.105H1686.81V1019H1660.54Z" fill="black"/>
<defs>
<linearGradient id="paint0_linear_1_732" x1="936.863" y1="140.726" x2="936.863" y2="670.169" gradientUnits="userSpaceOnUse">
<stop stop-color="#B94848"/>
<stop offset="1" stop-color="#851287"/>
</linearGradient>
<linearGradient id="paint1_linear_1_732" x1="817.731" y1="188.402" x2="817.731" y2="633.508" gradientUnits="userSpaceOnUse">
<stop stop-color="#B94848"/>
<stop offset="1" stop-color="#851287"/>
</linearGradient>
<linearGradient id="paint2_linear_1_732" x1="879.7" y1="188.4" x2="1010.9" y2="686.045" gradientUnits="userSpaceOnUse">
<stop stop-color="#F25E79"/>
<stop offset="1" stop-color="#C52CF1"/>
</linearGradient>
<linearGradient id="paint3_linear_1_732" x1="957.499" y1="-6.7427" x2="1041.89" y2="671.218" gradientUnits="userSpaceOnUse">
<stop stop-color="#F05C80"/>
<stop offset="1" stop-color="#CC34DF"/>
</linearGradient>
<linearGradient id="paint4_linear_1_732" x1="554.736" y1="102.738" x2="866.626" y2="724.212" gradientUnits="userSpaceOnUse">
<stop stop-color="#FFD83E"/>
<stop offset="1" stop-color="#D038D7"/>
</linearGradient>
</defs>
</svg>
